<?xml version="1.0" encoding="UTF-8" standalone="no"?>
<!DOCTYPE svg PUBLIC "-//W3C//DTD SVG 1.1//EN"
 "http://www.w3.org/Graphics/SVG/1.1/DTD/svg11.dtd">
<!-- Generated by graphviz version 2.40.1 (20161225.0304)
 -->
<!-- Title: %0 Pages: 1 -->
<svg width="816pt" height="416pt"
 viewBox="0.00 0.00 816.20 415.81" xmlns="http://www.w3.org/2000/svg" xmlns:xlink="http://www.w3.org/1999/xlink">
<g id="graph0" class="graph" transform="scale(1 1) rotate(0) translate(4 411.8135)">
<title>%0</title>
<polygon fill="#ffffff" stroke="transparent" points="-4,4 -4,-411.8135 812.2037,-411.8135 812.2037,4 -4,4"/>
<text text-anchor="middle" x="404.1019" y="-391.2135" font-family="Times,serif" font-size="14.00" fill="#000000">Structural mediation model (standardized coefficients)</text>
<g id="clust1" class="cluster">
<title>cluster_legend</title>
<polygon fill="none" stroke="#ffffff" points="8,-303.0135 8,-375.0135 275.92,-375.0135 275.92,-303.0135 8,-303.0135"/>
</g>
<!-- Language -->
<g id="node1" class="node">
<title>Language</title>
<path fill="#ffffff" stroke="#000000" d="M170.6624,-268.0135C170.6624,-268.0135 113.2576,-268.0135 113.2576,-268.0135 107.2576,-268.0135 101.2576,-262.0135 101.2576,-256.0135 101.2576,-256.0135 101.2576,-244.0135 101.2576,-244.0135 101.2576,-238.0135 107.2576,-232.0135 113.2576,-232.0135 113.2576,-232.0135 170.6624,-232.0135 170.6624,-232.0135 176.6624,-232.0135 182.6624,-238.0135 182.6624,-244.0135 182.6624,-244.0135 182.6624,-256.0135 182.6624,-256.0135 182.6624,-262.0135 176.6624,-268.0135 170.6624,-268.0135"/>
<text text-anchor="middle" x="141.96" y="-253.3135" font-family="Helvetica,sans-Serif" font-size="11.00" fill="#000000">Language</text>
<text text-anchor="middle" x="141.96" y="-240.1135" font-family="Helvetica,sans-Serif" font-size="11.00" fill="#000000">(Russian = 1)</text>
</g>
<!-- Threat -->
<g id="node2" class="node">
<title>Threat</title>
<path fill="#ffffff" stroke="#000000" d="M431.9716,-60.0135C431.9716,-60.0135 370.8445,-60.0135 370.8445,-60.0135 364.8445,-60.0135 358.8445,-54.0135 358.8445,-48.0135 358.8445,-48.0135 358.8445,-36.0135 358.8445,-36.0135 358.8445,-30.0135 364.8445,-24.0135 370.8445,-24.0135 370.8445,-24.0135 431.9716,-24.0135 431.9716,-24.0135 437.9716,-24.0135 443.9716,-30.0135 443.9716,-36.0135 443.9716,-36.0135 443.9716,-48.0135 443.9716,-48.0135 443.9716,-54.0135 437.9716,-60.0135 431.9716,-60.0135"/>
<text text-anchor="middle" x="401.4081" y="-38.7135" font-family="Helvetica,sans-Serif" font-size="11.00" fill="#000000">Threat (latent)</text>
</g>
<!-- Language&#45;&gt;Threat -->
<g id="edge1" class="edge">
<title>Language&#45;&gt;Threat</title>
<path fill="none" stroke="#b2182b" stroke-width="1.2" d="M164.5304,-231.9188C211.1063,-194.5788 317.9166,-108.9488 370.7128,-66.622"/>
<polygon fill="#b2182b" stroke="#b2182b" stroke-width="1.2" points="373.0921,-69.2005 378.705,-60.2146 368.7135,-63.7389 373.0921,-69.2005"/>
<text text-anchor="middle" x="313.3982" y="-131.3135" font-family="Helvetica,sans-Serif" font-size="11.00" fill="#000000">&#45;0.55***</text>
</g>
<!-- Response -->
<g id="node3" class="node">
<title>Response</title>
<path fill="#ffffff" stroke="#000000" d="M625.5896,-154.0135C625.5896,-154.0135 546.9981,-154.0135 546.9981,-154.0135 540.9981,-154.0135 534.9981,-148.0135 534.9981,-142.0135 534.9981,-142.0135 534.9981,-130.0135 534.9981,-130.0135 534.9981,-124.0135 540.9981,-118.0135 546.9981,-118.0135 546.9981,-118.0135 625.5896,-118.0135 625.5896,-118.0135 631.5896,-118.0135 637.5896,-124.0135 637.5896,-130.0135 637.5896,-130.0135 637.5896,-142.0135 637.5896,-142.0135 637.5896,-148.0135 631.5896,-154.0135 625.5896,-154.0135"/>
<text text-anchor="middle" x="586.2939" y="-132.7135" font-family="Helvetica,sans-Serif" font-size="11.00" fill="#000000">Response (latent)</text>
</g>
<!-- Language&#45;&gt;Response -->
<g id="edge6" class="edge">
<title>Language&#45;&gt;Response</title>
<path fill="none" stroke="#b2182b" stroke-width="1.2" stroke-dasharray="5,2" d="M182.9654,-239.493C261.424,-219.3634 433.1525,-175.3041 525.1821,-151.6926"/>
<polygon fill="#b2182b" stroke="#b2182b" stroke-width="1.2" points="526.0998,-155.0706 534.9162,-149.1952 524.3601,-148.2902 526.0998,-155.0706"/>
<text text-anchor="middle" x="401.4081" y="-196.3135" font-family="Helvetica,sans-Serif" font-size="11.00" fill="#000000">&#45;0.11†</text>
</g>
<!-- Trust -->
<g id="node4" class="node">
<title>Trust</title>
<path fill="#ffffff" stroke="#000000" d="M796.3425,-109.0135C796.3425,-109.0135 733.7881,-109.0135 733.7881,-109.0135 727.7881,-109.0135 721.7881,-103.0135 721.7881,-97.0135 721.7881,-97.0135 721.7881,-85.0135 721.7881,-85.0135 721.7881,-79.0135 727.7881,-73.0135 733.7881,-73.0135 733.7881,-73.0135 796.3425,-73.0135 796.3425,-73.0135 802.3425,-73.0135 808.3425,-79.0135 808.3425,-85.0135 808.3425,-85.0135 808.3425,-97.0135 808.3425,-97.0135 808.3425,-103.0135 802.3425,-109.0135 796.3425,-109.0135"/>
<text text-anchor="middle" x="765.0653" y="-87.7135" font-family="Helvetica,sans-Serif" font-size="11.00" fill="#000000">Trust in NATO</text>
</g>
<!-- Language&#45;&gt;Trust -->
<g id="edge4" class="edge">
<title>Language&#45;&gt;Trust</title>
<path fill="none" stroke="#888888" stroke-width="1.2" d="M182.6912,-249.8207C269.4174,-248.1453 477.4824,-237.3565 637.6916,-175.0135 674.2867,-160.7731 711.2109,-134.858 735.8118,-115.5642"/>
<polygon fill="#888888" stroke="#888888" stroke-width="1.2" points="738.0285,-118.2732 743.664,-109.3014 733.6637,-112.8006 738.0285,-118.2732"/>
<text text-anchor="middle" x="489.418" y="-225.3135" font-family="Helvetica,sans-Serif" font-size="11.00" fill="#000000">&#45;0.03</text>
</g>
<!-- Threat&#45;&gt;Response -->
<g id="edge2" class="edge">
<title>Threat&#45;&gt;Response</title>
<path fill="none" stroke="#1b7837" stroke-width="1.2" d="M437.0559,-60.1377C466.8536,-75.2875 509.5052,-96.9725 541.5865,-113.2834"/>
<polygon fill="#1b7837" stroke="#1b7837" stroke-width="1.2" points="540.2551,-116.5328 550.7554,-117.945 543.4276,-110.293 540.2551,-116.5328"/>
<text text-anchor="middle" x="489.418" y="-98.3135" font-family="Helvetica,sans-Serif" font-size="11.00" fill="#000000">0.86*</text>
</g>
<!-- Threat&#45;&gt;Trust -->
<g id="edge5" class="edge">
<title>Threat&#45;&gt;Trust</title>
<path fill="none" stroke="#b2182b" stroke-width="1.2" d="M444.1935,-47.7786C510.7639,-56.7484 639.0119,-74.0288 711.5887,-83.808"/>
<polygon fill="#b2182b" stroke="#b2182b" stroke-width="1.2" points="711.501,-87.3277 721.8789,-85.1945 712.4358,-80.3904 711.501,-87.3277"/>
<text text-anchor="middle" x="586.2939" y="-77.3135" font-family="Helvetica,sans-Serif" font-size="11.00" fill="#000000">&#45;0.29</text>
</g>
<!-- Response&#45;&gt;Trust -->
<g id="edge3" class="edge">
<title>Response&#45;&gt;Trust</title>
<path fill="none" stroke="#1b7837" stroke-width="1.2" d="M638.002,-122.9977C661.2816,-117.1378 688.7346,-110.2274 712.155,-104.332"/>
<polygon fill="#1b7837" stroke="#1b7837" stroke-width="1.2" points="713.0784,-107.7089 721.9215,-101.8736 711.3696,-100.9206 713.0784,-107.7089"/>
<text text-anchor="middle" x="679.8093" y="-120.3135" font-family="Helvetica,sans-Serif" font-size="11.00" fill="#000000">0.92***</text>
</g>
<!-- Controls -->
<g id="node5" class="node">
<title>Controls</title>
<path fill="#ffffff" stroke="#000000" d="M187.4853,-65.6152C187.4853,-65.6152 96.4347,-65.6152 96.4347,-65.6152 90.4347,-65.6152 84.4347,-59.6152 84.4347,-53.6152 84.4347,-53.6152 84.4347,-30.4119 84.4347,-30.4119 84.4347,-24.4119 90.4347,-18.4119 96.4347,-18.4119 96.4347,-18.4119 187.4853,-18.4119 187.4853,-18.4119 193.4853,-18.4119 199.4853,-24.4119 199.4853,-30.4119 199.4853,-30.4119 199.4853,-53.6152 199.4853,-53.6152 199.4853,-59.6152 193.4853,-65.6152 187.4853,-65.6152"/>
<text text-anchor="middle" x="141.96" y="-51.9135" font-family="Helvetica,sans-Serif" font-size="11.00" fill="#000000">Controls:</text>
<text text-anchor="middle" x="141.96" y="-38.7135" font-family="Helvetica,sans-Serif" font-size="11.00" fill="#000000">Age, Gender, Class,</text>
<text text-anchor="middle" x="141.96" y="-25.5135" font-family="Helvetica,sans-Serif" font-size="11.00" fill="#000000">Interest, Education</text>
</g>
<!-- Controls&#45;&gt;Threat -->
<g id="edge7" class="edge">
<title>Controls&#45;&gt;Threat</title>
<path fill="none" stroke="#888888" stroke-width="1.2" d="M199.5399,-42.0135C244.0429,-42.0135 305.1556,-42.0135 348.4504,-42.0135"/>
<polygon fill="#888888" stroke="#888888" stroke-width="1.2" points="348.5019,-45.5136 358.5018,-42.0135 348.5018,-38.5136 348.5019,-45.5136"/>
<text text-anchor="middle" x="313.3982" y="-45.3135" font-family="Helvetica,sans-Serif" font-size="11.00" fill="#000000">included</text>
</g>
<!-- Controls&#45;&gt;Response -->
<g id="edge8" class="edge">
<title>Controls&#45;&gt;Response</title>
<path fill="none" stroke="#888888" stroke-width="1.2" d="M199.5599,-56.804C264.6577,-73.1917 373.9403,-99.7151 468.9398,-118.0135 486.9583,-121.4842 506.6365,-124.7177 524.6411,-127.4594"/>
<polygon fill="#888888" stroke="#888888" stroke-width="1.2" points="524.3273,-130.9514 534.7357,-128.9724 525.365,-124.0287 524.3273,-130.9514"/>
<text text-anchor="middle" x="401.4081" y="-116.3135" font-family="Helvetica,sans-Serif" font-size="11.00" fill="#000000">included</text>
</g>
<!-- Controls&#45;&gt;Trust -->
<g id="edge9" class="edge">
<title>Controls&#45;&gt;Trust</title>
<path fill="none" stroke="#888888" stroke-width="1.2" d="M199.565,-28.4275C243.0502,-18.8963 304.3433,-6.9995 358.8763,-2.0135 488.662,9.8529 637.3957,-39.2761 713.8118,-69.2747"/>
<polygon fill="#888888" stroke="#888888" stroke-width="1.2" points="712.6271,-72.5701 723.2127,-73.0126 715.2135,-66.0654 712.6271,-72.5701"/>
<text text-anchor="middle" x="489.418" y="-13.3135" font-family="Helvetica,sans-Serif" font-size="11.00" fill="#000000">included</text>
</g>
<!-- Legend -->
<g id="node6" class="node">
<title>Legend</title>
<text text-anchor="middle" x="141.96" y="-354.0135" font-family="Helvetica,sans-Serif" font-size="10.00" fill="#000000">Notes:</text>
<text text-anchor="middle" x="141.96" y="-342.0135" font-family="Helvetica,sans-Serif" font-size="10.00" fill="#000000">• Estimator: WLSMV</text>
<text text-anchor="middle" x="141.96" y="-330.0135" font-family="Helvetica,sans-Serif" font-size="10.00" fill="#000000">• R²: Threat = 0.36; Response = 0.86; Trust = 0.51</text>
<text text-anchor="middle" x="141.96" y="-318.0135" font-family="Helvetica,sans-Serif" font-size="10.00" fill="#000000">• *** p&lt;.001; ** p&lt;.01; * p&lt;.05</text>
</g>
</g>
</svg>

